<svg width="351" height="118" viewBox="0 0 351 118" fill="none" xmlns="http://www.w3.org/2000/svg">
<path d="M22.0983 111.323C34.1815 113.144 41.4575 85.3143 41.7173 84.0139C44.3159 98.7088 55.8794 116.655 73.9393 105.471C89.2707 95.9779 91.7393 76.2113 87.4517 59.9559C89.4006 61.1263 94.4678 61.6465 95.5072 61.2563C100.964 59.0456 97.716 54.8842 95.897 55.1443C94.3379 55.9246 85.5028 50.2027 83.9437 46.6915C83.1641 44.3507 81.7349 41.0996 80.1758 38.6288C72.1203 27.4451 64.9743 39.4091 70.951 48.7722C73.5495 53.0636 77.4473 56.0546 79.2663 56.5748C80.8254 64.2473 83.9437 91.0362 68.7422 97.9285C62.3757 101.05 60.5568 100.139 59.5173 92.9869C58.6079 82.9735 60.5568 65.9379 60.9465 62.8169C61.3363 61.6465 60.9465 60.7362 60.5568 59.6958C58.0881 56.4447 49.9027 48.6422 45.2253 49.0323C43.6662 49.2924 41.3275 71.6598 40.2881 73.8705C38.8589 77.6418 37.2998 81.5431 35.3509 85.1843C32.4925 90.1259 27.8151 99.7491 22.8779 102.48C21.1888 103.26 20.5392 103 19.7596 101.57C16.9012 94.0272 22.3582 64.2473 22.8779 57.355C23.0078 56.4447 22.8779 55.2744 22.618 53.9739C20.9289 49.6825 8.71579 42.9203 4.55811 43.3104C3.77855 43.3104 3.64862 43.9606 3.77855 44.4808C4.29826 48.122 3.64862 52.9336 2.86906 56.4447C0.790223 67.1083 -0.898831 78.6821 0.530369 89.4757C1.43986 97.9285 13.0034 110.413 22.0983 111.323Z" fill="url(#paint0_linear)"/>
<path d="M127.597 56.4447C125.259 58.6555 117.333 75.301 116.943 77.6418C116.294 57.8752 118.892 24.9743 113.435 7.15838C111.616 0.916306 96.1548 -1.94465 91.6074 1.43648C98.4935 7.15837 86.0205 76.9916 96.2847 97.6684C98.7533 102.61 111.616 111.193 118.242 106.381C119.802 105.211 119.672 103.65 119.672 101.7C119.022 98.9689 128.637 82.3233 130.975 81.283C130.456 86.8748 134.613 121.596 156.571 117.695C170.993 108.202 182.426 87.395 185.545 75.8212C182.686 75.8212 181.647 75.8212 178.399 75.8212C175.54 85.4444 156.571 112.233 154.622 106.901C150.594 95.4577 155.921 71.9199 151.244 61.7765C150.594 60.216 149.815 58.6555 148.386 57.4851C143.968 54.3641 131.755 52.9336 127.597 56.4447Z" fill="url(#paint1_linear)"/>
<path d="M184.133 27.8352C184.133 33.6872 195.956 39.149 200.634 38.1087C201.153 37.9786 201.543 37.9786 201.933 37.5885C205.311 35.1177 212.067 24.5842 211.547 21.3331C210.378 16.5215 188.161 4.55752 186.212 11.5799C185.042 17.0417 184.133 22.3734 184.133 27.8352ZM219.993 75.8212C216.874 83.6238 210.508 96.368 203.882 100.399C203.102 101.05 202.453 101.05 202.063 101.05C198.425 90.5161 200.114 70.4894 205.051 59.6958C211.028 49.5524 182.184 45.0009 181.274 50.2027C178.416 62.2967 175.947 81.9332 179.845 93.377C182.314 101.44 195.047 109.502 203.102 109.502C214.926 109.502 227.139 75.8212 227.139 75.8212C224.8 75.8212 223.241 75.8212 219.993 75.8212Z" fill="url(#paint2_linear)"/>
<path d="M343.854 75.8212C338.787 87.5251 331.121 101.44 324.755 101.05C321.896 97.6684 326.444 65.0276 327.613 59.4357C329.562 51.113 314.49 48.6422 308.774 49.6825C294.482 52.9336 292.533 69.4491 290.584 69.4491C290.324 69.4491 290.324 68.9289 290.324 68.4087C289.544 62.2967 284.347 52.1533 278.111 50.2027C274.083 48.7722 266.807 47.8619 263.039 48.252C255.503 49.2924 243.81 79.5924 242.511 84.6641C242.381 84.7942 242.381 85.3143 241.861 85.1843C241.731 78.9422 245.239 61.7765 246.538 59.6958C251.866 49.2924 223.152 45.0009 222.242 50.2027C219.773 60.216 218.214 83.2336 220.813 93.377C222.242 99.359 234.715 109.762 241.471 106.901C243.16 106.121 243.81 103.65 243.81 101.83C243.29 98.3186 260.311 61.7765 262.52 62.2967C263.039 62.5568 263.039 63.9872 262.649 65.1576C261.22 78.9422 259.141 86.2246 261.74 100.399C263.429 109.892 281.879 114.054 289.025 101.18C289.544 97.4083 302.017 68.4087 302.667 68.2787C301.888 78.9422 302.017 92.9869 306.825 102.48C311.242 111.193 320.727 114.444 329.302 109.892C338.267 104.561 347.752 86.2246 351 75.8212H343.854Z" fill="url(#paint3_linear)"/>
<defs>
<linearGradient id="paint0_linear" x1="-21.6" y1="8.16923" x2="29.3281" y2="184.422" gradientUnits="userSpaceOnUse">
<stop stop-color="#F58959"/>
<stop offset="1" stop-color="#E76A33"/>
</linearGradient>
<linearGradient id="paint1_linear" x1="-21.6" y1="8.16923" x2="29.3281" y2="184.422" gradientUnits="userSpaceOnUse">
<stop stop-color="#F58959"/>
<stop offset="1" stop-color="#E76A33"/>
</linearGradient>
<linearGradient id="paint2_linear" x1="-21.6" y1="8.16923" x2="29.3281" y2="184.422" gradientUnits="userSpaceOnUse">
<stop stop-color="#F58959"/>
<stop offset="1" stop-color="#E76A33"/>
</linearGradient>
<linearGradient id="paint3_linear" x1="-21.6" y1="8.16923" x2="29.3281" y2="184.422" gradientUnits="userSpaceOnUse">
<stop stop-color="#F58959"/>
<stop offset="1" stop-color="#E76A33"/>
</linearGradient>
</defs>
</svg>
